<svg width="44" height="34" fill="none" xmlns="http://www.w3.org/2000/svg"><path d="M7.15 15.62a2.46 2.46 0 000 3.41c.92.94 2.41.94 3.34 0a16.05 16.05 0 0123.03 0 2.32 2.32 0 003.33 0c.91-.93.91-2.46 0-3.4a20.69 20.69 0 00-29.7 0z" fill="#fff"/><path d="M13.52 22.13a2.46 2.46 0 000 3.41c.92.94 2.41.94 3.34 0a7.16 7.16 0 0110.28 0 2.32 2.32 0 003.33 0c.92-.94.92-2.46 0-3.4a11.8 11.8 0 00-16.95 0z" fill="#fff"/><path d="M22 34a3.17 3.17 0 003.14-3.2c0-1.78-1.4-3.22-3.14-3.22a3.17 3.17 0 00-3.14 3.21c0 1.77 1.4 3.21 3.14 3.21z" fill="#fff"/><path d="M43.31 9A29.72 29.72 0 00.7 9a2.46 2.46 0 000 3.41c.92.94 2.4.94 3.33 0a25.06 25.06 0 0135.96 0 2.32 2.32 0 003.33 0c.92-.93.92-2.46 0-3.4z" fill="#fff"/></svg>